<svg xmlns="http://www.w3.org/2000/svg" width="18.788" height="15.633" viewBox="0 0 18.788 15.633">
  <path id="Path_1045" data-name="Path 1045" d="M16.368-15.532a2.624,2.624,0,0,0-.308-.792c-.88-1.54-11.616-8.14-13.2-8.14-1.012,0-1.144,1.056-1.1,1.584a8.674,8.674,0,0,0,1.056,2.816c.66,1.144,3.432,3.08,5.808,4.62C5.456-13.288.66-9.2.748-8.272.88-7,2.684-5.676,4.136-5.676h.4c1.232-.22,6.38-4.4,9.24-7.04a1.8,1.8,0,0,0,.484.044A2.694,2.694,0,0,0,16.368-15.532Z" transform="translate(-5.676 -0.747) rotate(90)" fill="#637953"/>
</svg>
