<svg xmlns="http://www.w3.org/2000/svg" width="50.449" height="49.024" viewBox="0 0 50.449 49.024">
  <g id="facebook" transform="translate(0.52 -15.2)">
    <path id="Path_22" data-name="Path 22" d="M48.027,30.908a20.929,20.929,0,0,0-8.251-11.642c-4.669-3.119-10.6-3.864-16.079-3.461A32.155,32.155,0,0,0,8.745,20.424,18.539,18.539,0,0,0,3.211,25.8,18.89,18.89,0,0,0,.534,33.384C.3,34.9.192,36.432.092,37.972a.573.573,0,0,0,.04.262.531.531,0,0,0-.151.382,52.626,52.626,0,0,0,.463,9.076,17.919,17.919,0,0,0,3.18,7.557,21.1,21.1,0,0,0,12.115,7.546c8.945,2.234,19.54.372,26.614-5.745C49.808,50.61,50.723,39.864,48.027,30.908Zm-6.48,25.406c-7.124,6.077-17.8,7.647-26.654,5.111A19.259,19.259,0,0,1,4.106,54.011C.977,49.422,1.078,43.848,1.078,38.525a.222.222,0,0,0-.01-.081.549.549,0,0,0,.1-.272,34.626,34.626,0,0,1,1.217-8.06,15.49,15.49,0,0,1,4.3-6.721c3.753-3.542,9.036-5.353,14.046-6.148,5.584-.885,11.622-.644,16.743,1.942a19.056,19.056,0,0,1,9.187,11.028C49.687,38.978,49,49.946,41.547,56.315Z" transform="translate(0 0)" fill="#fff" stroke="#fff" stroke-width="1"/>
    <path id="Path_23" data-name="Path 23" d="M148.46,102.767c-.141.02-.282.04-.423.05-.413.03-.835.03-1.248.03-.5,0-1.016-.03-1.519-.04.01-.282.02-.563.03-.835.03-.654.06-1.529.724-1.851a3.426,3.426,0,0,1,1.318-.171c.493-.02,1-.01,1.489-.07a.529.529,0,0,0,.4-.231.573.573,0,0,0,.221-.463c0-1.65.05-3.31-.01-4.961,0-.07-.01-.141-.01-.211h-.03v-.724c-.02-.6-.04-1.218-.05-1.821h.05V90.3c-2.033.04-4.075.161-6.108.231a9.951,9.951,0,0,0-6.148,1.992,5.743,5.743,0,0,0-1.791,2.978,22.579,22.579,0,0,0-.171,4.739c-.03.795-.1,1.6-.181,2.395a.474.474,0,0,0-.131.151c-.684-.02-1.358-.081-2.043-.1-.563-.01-1.781-.151-2.113.473a.588.588,0,0,0-.191.443v.02h0a33.937,33.937,0,0,1-.2,5.353.587.587,0,0,0,.453.674,16.343,16.343,0,0,0,2.425.332,7.951,7.951,0,0,0,1.308.03c0,.06-.01.111-.01.171a119.449,119.449,0,0,0,.181,12.155.582.582,0,0,0,.131.332.707.707,0,0,0,.272.473.543.543,0,0,0,.745-.01c.04,0,.08.01.131.01a8.363,8.363,0,0,0,.875.04h7.838a.471.471,0,0,0,.5-.453.552.552,0,0,0,.121-.372c0-4.166-.111-8.321-.131-12.487h2.415a.488.488,0,0,0,.443-.242.394.394,0,0,0,.1-.08,1.978,1.978,0,0,0,.392-1.077,19.442,19.442,0,0,1,.252-2.3c.161-.835.423-1.64.584-2.475a.977.977,0,0,0,.01-.171.5.5,0,0,0,.091-.252A.586.586,0,0,0,148.46,102.767Zm-.956,4.125c-.05.463-.07.946-.111,1.4a1.677,1.677,0,0,1-.08.322v.01a.285.285,0,0,0-.1.091h-2.636a.513.513,0,0,0-.493.674h-.04c.01,4.216.121,8.422.131,12.638h-6.067c-.775,0-1.519-.03-2.274-.06a121.277,121.277,0,0,1-.141-12.4c.423-.463-.171-1.278-.735-.865-.382.282-1.278.161-1.771.121a14.913,14.913,0,0,1-1.64-.211,37.6,37.6,0,0,0,.141-4.759,2.845,2.845,0,0,1,.413-.03c.392-.02.785-.01,1.187,0,.714.02,1.429.091,2.143.1a.468.468,0,0,0,.211-.05h.4c.05-.614.111-1.228.171-1.851a46.973,46.973,0,0,0,.121-4.759,5.1,5.1,0,0,1,1.318-3.632c1.489-1.57,3.964-1.912,6.017-1.972,1.519-.05,3.049-.121,4.568-.181,0,.875.03,1.741.08,2.626.091,1.55.04,3.109.03,4.659a16.56,16.56,0,0,0-2.536.2,2.226,2.226,0,0,0-1.489,1.721,14.988,14.988,0,0,0-.211,3v.181h.443a.608.608,0,0,0,.241.05c.845,0,1.69.06,2.536.05.2,0,.493.01.8-.01A25.09,25.09,0,0,0,147.5,106.892Z" transform="translate(-116.227 -67.089)" fill="#fff" stroke="#fff" stroke-width="1"/>
  </g>
</svg>
