<svg xmlns="http://www.w3.org/2000/svg" width="50.449" height="49.024" viewBox="0 0 50.449 49.024">
  <g id="instagram" transform="translate(-1.431 -1.217)">
    <path id="Path_47" data-name="Path 47" d="M35.268,15.834c-.05,0-.1,0-.15,0a3.769,3.769,0,0,1-3.009-1.837,2.433,2.433,0,0,1,.72-3.159,3.3,3.3,0,0,1,3.834.224h0a2.883,2.883,0,0,1,.962,1.555,2.807,2.807,0,0,1-.35,2.183A2.309,2.309,0,0,1,35.268,15.834ZM34.6,11.442a2.214,2.214,0,0,0-1.176.333,1.338,1.338,0,0,0-.329,1.7,2.671,2.671,0,0,0,2.077,1.244,1.273,1.273,0,0,0,1.171-.534,1.708,1.708,0,0,0,.2-1.313,1.779,1.779,0,0,0-.592-.957A2.118,2.118,0,0,0,34.6,11.442Z" transform="translate(3.323 0.898)" fill="#fff" stroke="#fff" stroke-width="1"/>
    <path id="Path_49" data-name="Path 49" d="M25.245,32.02a7.58,7.58,0,0,1-3.6-.894,7.43,7.43,0,0,1-1.416-1.078,7.566,7.566,0,0,0-1.015-.817,5.72,5.72,0,0,1-2.194-4.558,7.453,7.453,0,0,1,.675-2.487,9.7,9.7,0,0,1,1.866-3.269,6.223,6.223,0,0,1,3.966-1.727h0a9.32,9.32,0,0,1,2.158.065,9.211,9.211,0,0,1,4.2,1.656,6.554,6.554,0,0,1,2.549,3.815,8.266,8.266,0,0,1-2.707,7.813A7.292,7.292,0,0,1,25.245,32.02ZM23.625,18.3a5.207,5.207,0,0,0-3.27,1.4,8.67,8.67,0,0,0-1.628,2.9,6.49,6.49,0,0,0-.6,2.113A4.686,4.686,0,0,0,19.8,28.288a8.643,8.643,0,0,1,1.168.933,6.486,6.486,0,0,0,1.2.926,6.532,6.532,0,0,0,6.865-.486,7.082,7.082,0,0,0,2.306-6.7A5.539,5.539,0,0,0,29.219,19.8a8.11,8.11,0,0,0-3.7-1.445,8.255,8.255,0,0,0-1.9-.057Z" transform="translate(1.629 1.68)" fill="#fff" stroke="#fff" stroke-width="1"/>
    <path id="Path_50" data-name="Path 50" d="M25.078,37.092a13.243,13.243,0,0,1-5.4-1.114,10.65,10.65,0,0,1-6.165-6.856,13.44,13.44,0,0,1,.211-6.177,17.915,17.915,0,0,1,1.739-4.935A11.15,11.15,0,0,1,18.5,14.664a8.931,8.931,0,0,1,2.4-1.257l.113-.037h0c2.318-.724,4.872-.274,6.923.089a13.656,13.656,0,0,1,7.14,4.465,6.927,6.927,0,0,1,.964,1.4,8.05,8.05,0,0,1,.7,3.01A18.4,18.4,0,0,1,36,29.772a9.72,9.72,0,0,1-6.323,6.61A15.616,15.616,0,0,1,25.078,37.092Zm-3.9-23.19.077.561a7.883,7.883,0,0,0-2.109,1.1,10.032,10.032,0,0,0-2.732,3.01,16.981,16.981,0,0,0-1.61,4.613,12.4,12.4,0,0,0-.215,5.661,9.523,9.523,0,0,0,5.538,6.107,13.122,13.122,0,0,0,9.213.358,8.761,8.761,0,0,0,5.6-5.9,17.326,17.326,0,0,0,.692-6.989,7.115,7.115,0,0,0-.585-2.6,5.91,5.91,0,0,0-.816-1.179,12.676,12.676,0,0,0-6.485-4.09c-2.034-.359-4.34-.767-6.4-.121h0Zm0,0h0Z" transform="translate(1.197 1.203)" fill="#fff" stroke="#fff" stroke-width="1"/>
    <path id="Path_53" data-name="Path 53" d="M48.027,30.908a20.929,20.929,0,0,0-8.251-11.642c-4.669-3.119-10.6-3.864-16.079-3.461A32.155,32.155,0,0,0,8.745,20.424,18.539,18.539,0,0,0,3.211,25.8,18.89,18.89,0,0,0,.534,33.384C.3,34.9.192,36.432.092,37.972a.573.573,0,0,0,.04.262.531.531,0,0,0-.151.382,52.626,52.626,0,0,0,.463,9.076,17.919,17.919,0,0,0,3.18,7.557,21.1,21.1,0,0,0,12.115,7.546c8.945,2.234,19.54.372,26.614-5.745C49.808,50.61,50.723,39.864,48.027,30.908Zm-6.48,25.406c-7.124,6.077-17.8,7.647-26.654,5.111A19.259,19.259,0,0,1,4.106,54.011C.977,49.422,1.078,43.848,1.078,38.525a.222.222,0,0,0-.01-.081.549.549,0,0,0,.1-.272,34.626,34.626,0,0,1,1.217-8.06,15.49,15.49,0,0,1,4.3-6.721c3.753-3.542,9.036-5.353,14.046-6.148,5.584-.885,11.622-.644,16.743,1.942a19.056,19.056,0,0,1,9.187,11.028C49.687,38.978,49,49.946,41.547,56.315Z" transform="translate(1.952 -13.982)" fill="#fff" stroke="#fff" stroke-width="1"/>
  </g>
</svg>
