<svg id="Group_45" data-name="Group 45" xmlns="http://www.w3.org/2000/svg" xmlns:xlink="http://www.w3.org/1999/xlink" width="194.526" height="48" viewBox="0 0 194.526 48">
  <defs>
    <clipPath id="clip-path">
      <rect id="Rectangle_80" data-name="Rectangle 80" width="194.526" height="48" fill="#0e1a16"/>
    </clipPath>
  </defs>
  <g id="Group_1" data-name="Group 1" clip-path="url(#clip-path)">
    <path id="Path_1" data-name="Path 1" d="M1465.311,77.531c-.366-6.276-1.849-12.342-3.123-18.446a23.377,23.377,0,0,1-.506-3.456c-.052-.927.038-2.136,1.1-2.327.959-.173,1.364.922,1.681,1.729a6.758,6.758,0,0,1,.487,1.85c.573,6.706,2.472,13.176,3.536,19.794.333,2.07.851,4.111,1.173,6.183.147.947.33,2.151-.939,2.518a2.291,2.291,0,0,1-2.605-1.361c-1.094-1.856-2.04-3.8-3.148-5.645a57.94,57.94,0,0,0-3.667-5.35c.409,5.03.24,10.061,1.039,15.032a14.844,14.844,0,0,1,.292,4.349c-.136,1.02-.551,1.851-1.66,1.958-1.208.116-2.394-.086-2.978-1.348a4.193,4.193,0,0,1-.377-1.694c-.038-9.793-2-19.367-3.282-29.019a5.242,5.242,0,0,1-.131-1.211c.125-1.163.544-2.327,1.8-2.508,1.209-.174,1.685.959,1.914,1.92,1.557,6.526,5.809,11.572,9.391,17.031" transform="translate(-1305.423 -47.898)" fill="#0e1a16"/>
    <path id="Path_2" data-name="Path 2" d="M1271.6,89.887c-2.161-.072-2.134-.086-1.859,2.145.393,3.183.789,6.366,1.088,9.559.105,1.122.639,1.361,1.606,1.257,1.221-.131,2.45-.2,3.669-.345a2.143,2.143,0,0,1,2.416,1.564c.675,1.611.243,2.264-1.507,2.256-.352,0-.7-.026-1.054,0-1.323.086-3.163-.241-3.742.864a5.46,5.46,0,0,0,.293,5.073,5.265,5.265,0,0,0,4.955,3.048c.995-.042,1.991-.092,2.986-.083,1.719.015,2.142.585,2.149,2.622,0,1.436-.365,2.346-2.1,2.238-2.338-.146-4.7-.075-6.88-1.118a8.948,8.948,0,0,1-5.525-7.34,201.267,201.267,0,0,0-3.3-21.592c-.025-.114-.043-.229-.06-.345-.653-4.553-.547-4.592,3.946-4.187,2.853.257,5.732.233,8.6.34a2.077,2.077,0,0,1,2.309,1.89c.26,1.721-.268,2.354-2.013,2.3-1.111-.034-2.224-.006-3.337-.006-.235,0-1.758-.109-2.636-.138" transform="translate(-1136.64 -76.716)" fill="#0e1a16"/>
    <path id="Path_3" data-name="Path 3" d="M.005,38.049Q.6,21.979.679,5.9A7.565,7.565,0,0,0,.312,2.983C-.115,1.9.342,1.184,1.56,1.127A51.844,51.844,0,0,0,11.312.08c1.331-.319,2.15.335,2.15,1.772,0,.64-.045,1.28-.1,1.919-.2,2.375-.633,2.727-2.961,2.272-1.6-.313-3.131.29-4.709.3-.72.006-.751.8-.836,1.354a87.415,87.415,0,0,0-.67,12.037c-.012.864.446.933,1.094.932A2.113,2.113,0,0,1,7.5,22.037c.389,1,.266,1.818-.924,1.936-2.013.2-2.294,1.471-2.431,3.149C3.639,33.3,4.074,39.482,3.8,45.655c-.042.932.268,2.159-1.17,2.333-1.02.123-2.6-1.515-2.613-2.591C-.01,42.948.005,40.5.005,38.049" transform="translate(0 0)" fill="#0e1a16"/>
    <path id="Path_4" data-name="Path 4" d="M644.834,31.354a84.657,84.657,0,0,1,1.194-15.129c.288-1.972,1.238-2.45,3.074-1.634a5.564,5.564,0,0,1,3.415,3.941c.264,1.1-.079,1.879-1.18,1.805-1.778-.119-2.195.967-2.492,2.292a43.5,43.5,0,0,0-.627,10.459,62.359,62.359,0,0,0,1.019,10.443,4.179,4.179,0,0,0,1.522,3.037c.858.568,1.567.477,1.818-.652a18.164,18.164,0,0,0,.212-4.88c-.038-.771-.6-.9-1.165-1.08a1.588,1.588,0,0,1-1.186-1.73,1.84,1.84,0,0,1,1.425-1.771c2.324-.785,3.488-.216,3.969,2.173a27.056,27.056,0,0,1-.08,10.785,4.714,4.714,0,0,1-4.4,3.87c-1.985.044-3.554-1.15-4.191-3.563a62.553,62.553,0,0,1-2.326-18.367" transform="translate(-579.628 -12.775)" fill="#0e1a16"/>
    <path id="Path_5" data-name="Path 5" d="M284.029,14.535c2.154-.024,4.308.241,6.43-.531,1.039-.377,2.317,1.059,2.494,2.587.157,1.35-.745,1.868-1.817,1.77-1.545-.143-1.775.529-1.856,1.861a194.2,194.2,0,0,0-.19,19.931c.145,3.488-.181,6.993-.186,10.49,0,1.742.255,3.484.365,5.228.062.981-.1,2.034-1.171,2.28s-1.468-.774-1.788-1.575a5.787,5.787,0,0,1-.482-2.025c-.09-10.9-1.282-21.78-.777-32.7.156-3.365.152-3.362-3.244-2.883-.985.139-1.989.187-2.957.4-1.381.3-2.06-.155-2.3-1.566s.019-2.5,1.527-2.846a28.907,28.907,0,0,1,5.947-.424" transform="translate(-248.536 -12.534)" fill="#0e1a16"/>
    <path id="Path_6" data-name="Path 6" d="M1659.124,118.8a2.753,2.753,0,0,1-.787-.227c-1.668-1.066-1.113-2.77-1.208-4.287a2.086,2.086,0,0,1,1.579-2.4,18.661,18.661,0,0,1,2.538-.686c1.861-.27,2.488-1.43,2.662-3.139a7.753,7.753,0,0,0-2.451-6.642c-1.464-1.427-3.012-2.767-4.524-4.145-4.272-3.892-3.622-10.679,1.351-14.259,1.02-.734,2.048-.958,2.943.146a1.906,1.906,0,0,1-.228,2.911c-1.623,1.6-1.664,3.666-1.282,5.732a16.066,16.066,0,0,0,3.2,6.915,26.08,26.08,0,0,1,5.672,12.6c.418,3.24-.3,4.481-3.4,5.56a31.634,31.634,0,0,1-6.062,1.916" transform="translate(-1486.923 -74.073)" fill="#0e1a16"/>
    <path id="Path_7" data-name="Path 7" d="M1108.7,60.138c-.728.035-1.016.193-.849,1.028q1.3,6.52,2.486,13.063a1.489,1.489,0,0,0,1.672,1.4c.7,0,1.41,0,2.108.065a2.536,2.536,0,0,1,2.4,2.179c.242,1.134-.195,1.683-1.4,1.538a33.719,33.719,0,0,0-3.489-.38c-1.69-.026-2.066.5-1.772,2.124.559,3.1,1.437,6.145,1.54,9.312.027.822.336,2.034-.819,2.2-1.226.178-1.877-.832-2.037-1.969-.529-3.755-1.083-7.509-1.487-11.278-.7-6.508-2.168-12.883-3.188-19.335-.352-2.222.2-2.929,2.4-2.953a23.783,23.783,0,0,0,8.468-1.216,1.722,1.722,0,0,1,2.123.77,2.654,2.654,0,0,1,.513,2.636c-.357.929-1.272.581-2.007.574-.761-.008-1.522,0-2.283,0-.114,0-2.923.174-4.385.245" transform="translate(-992.214 -50.146)" fill="#0e1a16"/>
    <path id="Path_8" data-name="Path 8" d="M1857.833,406.509c-1.509-.01-3.151-1.927-3.1-3.621.036-1.2,1.508-2.415,2.971-2.451,1.177-.029,3.643,1.779,3.624,2.658-.03,1.393-2.109,3.424-3.5,3.415" transform="translate(-1667.276 -359.965)" fill="#0e1a16"/>
    <path id="Path_9" data-name="Path 9" d="M168.327,29.158a18.356,18.356,0,0,0-2.279-6.017c-.643-1.009-1.432-1.964-2.781-1.789a3.5,3.5,0,0,0-2.72,2.251,7.7,7.7,0,0,0-.478,3.954,34.087,34.087,0,0,1-.173,5.931c-.413,5.052-1.119,10.09-.821,15.18,0,1.458-.03,2.916.006,4.373a29.48,29.48,0,0,0,1.393,9.647,6.751,6.751,0,0,0,3.724,4.186,3.182,3.182,0,0,0,4.437-1.791,27.578,27.578,0,0,0,1.683-6.21,94.9,94.9,0,0,0-1.991-29.715m-2.939,28.719c-.254,1.074-.589,2.131-.937,3.18-.16.482-.323,1.152-.929,1.14-.723-.015-.784-.774-.935-1.3a33.91,33.91,0,0,1-.976-7.272c-.122-1.976-.025-3.965-.025-5.948-.2-6.2.666-12.338,1.068-18.508.073-1.112.141-2.863,1.29-2.931,1.124-.067,1.394,1.671,1.674,2.761a20.137,20.137,0,0,1,.623,3.968c.414,8.326,1.1,16.668-.854,24.913" transform="translate(-142.934 -19.175)" fill="#0e1a16"/>
    <path id="Path_10" data-name="Path 10" d="M806.7,71.8a13.484,13.484,0,0,0-.844-3.736,110.739,110.739,0,0,0-5.473-12.269c-1.063-2.217-1.241-4.012.095-6.163,1.308-2.1,2.524-4.35,2.326-7.013-.322-4.343-1.422-8.333-5.407-10.8-2.674-1.657-4.884-.4-5.082,2.72a34.1,34.1,0,0,0,.428,5.4c.923,9.752,2.108,19.482,2.383,29.286a6.184,6.184,0,0,0,.742,3.025,1.277,1.277,0,0,0,1.259.793c.626-.1.753-.692.809-1.21a22.057,22.057,0,0,0-.108-5.063c-.454-3.683-.938-7.362-1.41-11.043l.236-.093c.149.282.318.555.443.846q2.926,6.816,5.842,13.636a8.361,8.361,0,0,0,1.423,2.59c.452.479.982.923,1.687.608.624-.278.677-.911.651-1.507M795.072,35.14c0-.417-.01-.844.491-.987a1.535,1.535,0,0,1,1.432.473,8.345,8.345,0,0,1,3.079,8.693,11.225,11.225,0,0,1-2.476,4.94c-2.213-4.305-2.5-8.688-2.527-13.118" transform="translate(-712.214 -27.941)" fill="#0e1a16"/>
    <path id="Path_11" data-name="Path 11" d="M500.133,63.991a106.414,106.414,0,0,0-2.053-14.707c-.727-3.29-1.245-6.65-2.672-9.747-.609-1.321-1.506-2.47-3.17-2.3-1.591.158-1.916,1.538-2.261,2.771a30.892,30.892,0,0,0-.742,8.216,162.708,162.708,0,0,0,1.5,19.633,21.224,21.224,0,0,0,3.363,9.1c1.07,1.622,2.321,1.632,3.453.054a6.419,6.419,0,0,0,.892-1.69,28.73,28.73,0,0,0,1.689-11.326m-3.273,7.2a3.248,3.248,0,0,1-.358.783.336.336,0,0,1-.323.225c-.249,0-.966-2.261-1.1-3.432-.724-6.5-2.22-12.87-3.121-19.336a15.8,15.8,0,0,1,.169-6.093c.144-.571.337-1.3.9-1.4.727-.127,1.063.622,1.319,1.2,1.539,3.47,1.8,7.219,2.347,10.9.359,2.423.673,4.853,1.017,7.278a25.816,25.816,0,0,1-.858,9.876" transform="translate(-439.788 -33.455)" fill="#0e1a16"/>
    <path id="Path_12" data-name="Path 12" d="M977.618,92.848c-1.054-3.332-1.48-6.816-2.331-10.16a103.863,103.863,0,0,0-5.145-15.761c-1.344-3.1-2.6-6.238-3.661-9.448a5.033,5.033,0,0,0-.6-1.244c-.258-.378-.6-.811-1.109-.744-.536.071-.676.606-.765,1.058a17.06,17.06,0,0,0-.366,2.418c-.494,10.086.483,20.189-.368,30.272a2.252,2.252,0,0,0,.418,1.488c.3.44.642.923,1.23.855.639-.074.77-.679.83-1.192.129-1.1.244-2.205.265-3.31.04-2.137.012-4.275.012-6.6,1.105.618,2.044,1.213,3.041,1.688a8.451,8.451,0,0,1,5.262,7.457,8.736,8.736,0,0,0,1.057,4.03c.364.591.672,1.562,1.663,1.173.908-.356.8-1.266.573-1.983m-10.837-17.78c-.472-3.967-.789-7.953-1.171-11.931-.019-.17.476-.258.552-.072,1.944,4.907,3.043,10.078,4.734,15.1-2.646.015-3.843-.8-4.115-3.094" transform="translate(-865.904 -49.876)" fill="#0e1a16"/>
  </g>
</svg>
