<svg id="Group_65" data-name="Group 65" xmlns="http://www.w3.org/2000/svg" xmlns:xlink="http://www.w3.org/1999/xlink" width="648.421" height="160" viewBox="0 0 648.421 160">
  <defs>
    <clipPath id="clip-path">
      <rect id="Rectangle_80" data-name="Rectangle 80" width="648.421" height="160" fill="#fff"/>
    </clipPath>
  </defs>
  <g id="Group_1" data-name="Group 1" clip-path="url(#clip-path)">
    <path id="Path_1" data-name="Path 1" d="M1495.913,134.108c-1.221-20.918-6.163-41.141-10.409-61.488a77.891,77.891,0,0,1-1.686-11.519c-.172-3.091.126-7.121,3.664-7.758,3.2-.575,4.547,3.073,5.6,5.764a22.511,22.511,0,0,1,1.625,6.168c1.91,22.354,8.239,43.92,11.788,65.981,1.11,6.9,2.836,13.7,3.911,20.609.491,3.157,1.1,7.171-3.13,8.394-3.9,1.13-6.828-1.386-8.684-4.536-3.647-6.186-6.8-12.662-10.494-18.817a193.126,193.126,0,0,0-12.221-17.834c1.363,16.767.8,33.538,3.463,50.105.77,4.786,1.631,9.59.975,14.5-.455,3.4-1.835,6.171-5.532,6.526-4.028.388-7.979-.285-9.926-4.492a13.977,13.977,0,0,1-1.255-5.645c-.127-32.642-6.67-64.558-10.94-96.73a17.453,17.453,0,0,1-.437-4.037c.418-3.878,1.812-7.757,6-8.36,4.032-.579,5.616,3.2,6.381,6.4,5.19,21.752,19.363,38.572,31.3,56.771" transform="translate(-962.953 -35.332)" fill="#fff"/>
    <path id="Path_2" data-name="Path 2" d="M1288.305,100.493c-7.2-.242-7.115-.286-6.2,7.151,1.31,10.609,2.631,21.222,3.627,31.862.35,3.741,2.128,4.537,5.353,4.191,4.071-.437,8.167-.653,12.229-1.15,4.24-.519,6.552,1.63,8.052,5.212,2.249,5.37.811,7.546-5.023,7.521-1.172-.005-2.349-.086-3.515-.01-4.411.285-10.543-.8-12.473,2.879-2.632,5.023-1.983,11.679.977,16.91,3.476,6.142,8.7,10.494,16.516,10.162,3.316-.141,6.636-.306,9.953-.276,5.729.051,7.141,1.951,7.163,8.741.015,4.786-1.216,7.821-7,7.459-7.793-.487-15.66-.249-22.934-3.725-10.392-4.967-17.109-12.809-18.418-24.466-2.71-24.14-5.7-48.232-11.015-71.974-.084-.379-.144-.764-.2-1.149-2.176-15.175-1.823-15.308,13.155-13.957,9.51.858,19.106.775,28.662,1.132,4.153.155,7.007,1.717,7.7,6.3.866,5.736-.894,7.847-6.709,7.671-3.7-.113-7.415-.021-11.122-.021-.784,0-5.861-.362-8.787-.46" transform="translate(-838.449 -56.59)" fill="#fff"/>
    <path id="Path_3" data-name="Path 3" d="M.017,126.83Q2.005,73.264,2.262,19.662c.014-3.3.043-6.5-1.223-9.72-1.424-3.619.1-6,4.161-6.187C16.106,3.242,27,2.834,37.7.265,42.141-.8,44.872,1.382,44.871,6.172c0,2.132-.151,4.268-.325,6.4-.65,7.917-2.109,9.088-9.87,7.574-5.34-1.042-10.436.968-15.7,1.016-2.4.022-2.5,2.659-2.788,4.514-2.028,13.3-2.05,26.715-2.232,40.125-.039,2.881,1.488,3.109,3.647,3.106,3.383,0,6.059,1.128,7.4,4.556,1.3,3.326.885,6.06-3.079,6.453-6.71.665-7.646,4.9-8.1,10.5-1.686,20.579-.239,41.2-1.165,61.775-.14,3.108.893,7.2-3.9,7.775-3.4.41-8.676-5.048-8.709-8.638-.075-8.163-.024-16.327-.024-24.491" transform="translate(0 0)" fill="#fff"/>
    <path id="Path_4" data-name="Path 4" d="M644.919,71.355c-.561-17.276,1.557-33.869,3.979-50.431.961-6.575,4.127-8.167,10.248-5.445,5.873,2.611,9.846,6.721,11.384,13.135.881,3.672-.262,6.263-3.935,6.017-5.926-.4-7.316,3.223-8.307,7.642-2.582,11.506-2.318,23.2-2.091,34.864a207.867,207.867,0,0,0,3.4,34.811c.727,3.826,1.486,7.749,5.072,10.123,2.86,1.894,5.222,1.59,6.061-2.173,1.2-5.369.973-10.816.706-16.265-.126-2.571-1.99-2.99-3.883-3.6a5.294,5.294,0,0,1-3.953-5.766c.147-3.078,1.792-4.905,4.75-5.9,7.747-2.615,11.628-.719,13.23,7.242a90.187,90.187,0,0,1-.267,35.951c-1.529,7.55-7.819,12.75-14.667,12.9-6.617.146-11.846-3.832-13.97-11.877-5.334-20.2-8.552-40.719-7.754-61.224" transform="translate(-427.567 -9.423)" fill="#fff"/>
    <path id="Path_5" data-name="Path 5" d="M301.646,15.915c7.179-.08,14.36.8,21.435-1.769,3.465-1.258,7.723,3.529,8.315,8.622.523,4.5-2.482,6.228-6.057,5.9-5.149-.475-5.916,1.764-6.188,6.2a647.364,647.364,0,0,0-.632,66.438c.482,11.626-.6,23.31-.621,34.967-.008,5.808.851,11.613,1.218,17.426.207,3.27-.32,6.781-3.9,7.6-3.543.81-4.895-2.579-5.958-5.25a19.29,19.29,0,0,1-1.606-6.75c-.3-36.343-4.273-72.6-2.589-108.987.519-11.217.506-11.208-10.813-9.609-3.285.464-6.63.624-9.857,1.329-4.6,1.006-6.866-.516-7.653-5.22s.062-8.32,5.089-9.488c6.5-1.511,13.189-1.266,19.822-1.413" transform="translate(-183.334 -9.246)" fill="#fff"/>
    <path id="Path_6" data-name="Path 6" d="M1670.844,203.723a9.175,9.175,0,0,1-2.623-.756c-5.561-3.552-3.71-9.232-4.028-14.29-.249-3.977,1.272-6.81,5.265-7.987a62.215,62.215,0,0,1,8.461-2.285c6.2-.9,8.294-4.768,8.873-10.462.893-8.791-1.974-16.1-8.169-22.14-4.879-4.755-10.041-9.224-15.08-13.816-14.242-12.975-12.074-35.6,4.5-47.53,3.4-2.447,6.828-3.193,9.81.486,2.72,3.354,2.579,6.419-.76,9.7-5.41,5.32-5.546,12.22-4.275,19.106a53.552,53.552,0,0,0,10.665,23.049c9.608,12.5,16.858,26.111,18.908,42,1.393,10.8-.992,14.938-11.346,18.532-6.6,2.292-12.976,5.388-20.2,6.385" transform="translate(-1096.838 -54.64)" fill="#fff"/>
    <path id="Path_7" data-name="Path 7" d="M1120.2,70.3c-2.425.118-3.385.644-2.829,3.427q4.345,21.732,8.288,43.543c.608,3.351,2.389,4.642,5.575,4.656,2.344.01,4.7-.012,7.028.218,4.418.438,7.093,2.965,8.009,7.264.806,3.78-.649,5.611-4.661,5.126a112.389,112.389,0,0,0-11.631-1.265c-5.632-.088-6.887,1.657-5.908,7.079,1.863,10.324,4.789,20.482,5.133,31.039.089,2.74,1.119,6.779-2.729,7.338-4.088.593-6.256-2.773-6.791-6.562-1.764-12.516-3.61-25.029-4.956-37.593-2.322-21.692-7.225-42.945-10.628-64.45-1.173-7.407.662-9.764,8.005-9.844,9.591-.105,19.136-.538,28.227-4.054,3.148-1.218,5.294.293,7.075,2.568,2.044,2.609,2.881,5.739,1.709,8.787-1.19,3.1-4.24,1.938-6.688,1.913-2.537-.026-5.073-.006-7.611-.006-.379,0-9.744.58-14.618.817" transform="translate(-731.913 -36.991)" fill="#fff"/>
    <path id="Path_8" data-name="Path 8" d="M1865.069,420.678c-5.031-.033-10.5-6.424-10.332-12.071.12-4,5.026-8.05,9.9-8.17,3.925-.1,12.144,5.93,12.081,8.858-.1,4.644-7.029,11.412-11.652,11.382" transform="translate(-1229.877 -265.53)" fill="#fff"/>
    <path id="Path_9" data-name="Path 9" d="M190.079,47.422c-1.551-7.026-3.676-13.91-7.595-20.058-2.144-3.363-4.775-6.548-9.269-5.963-4.392.571-7.292,3.593-9.066,7.5-1.9,4.19-2,8.708-1.593,13.179.61,6.628-.038,13.175-.577,19.769-1.376,16.842-3.729,33.634-2.737,50.6,0,4.859-.1,9.721.021,14.577.273,10.9.8,21.781,4.642,32.157,2.3,6.218,6,11.253,12.413,13.953,6.062,2.552,12.621.293,14.789-5.969,2.339-6.754,4.933-13.678,5.611-20.7,3.214-33.331.576-66.371-6.638-99.049m-9.8,95.731c-.848,3.58-1.963,7.1-3.122,10.6-.532,1.606-1.077,3.84-3.1,3.8-2.41-.049-2.613-2.579-3.116-4.342-2.258-7.913-2.749-16.1-3.252-24.24-.408-6.585-.083-13.217-.083-19.827-.672-20.661,2.219-41.128,3.561-61.694.242-3.706.47-9.544,4.3-9.771,3.747-.222,4.648,5.57,5.579,9.2a67.123,67.123,0,0,1,2.078,13.228c1.38,27.754,3.66,55.56-2.848,83.043" transform="translate(-105.436 -14.145)" fill="#fff"/>
    <path id="Path_10" data-name="Path 10" d="M840.313,166.8a44.943,44.943,0,0,0-2.813-12.455c-4.8-14.195-11.794-27.45-18.244-40.9-3.545-7.39-4.138-13.373.316-20.542,4.359-7.016,8.413-14.5,7.755-23.378-1.074-14.478-4.739-27.778-18.024-36.008-8.915-5.523-16.281-1.33-16.941,9.066-.386,6.074.858,12,1.426,17.991,3.077,32.505,7.027,64.94,7.942,97.621a20.614,20.614,0,0,0,2.475,10.082c.931,1.588,2.273,2.938,4.2,2.642,2.085-.321,2.51-2.305,2.7-4.035a73.522,73.522,0,0,0-.359-16.878c-1.513-12.277-3.128-24.541-4.7-36.81l.787-.309c.5.939,1.06,1.849,1.477,2.821q9.754,22.718,19.472,45.452c1.3,3.033,2.426,6.172,4.744,8.632,1.506,1.6,3.273,3.077,5.625,2.026,2.079-.928,2.255-3.038,2.17-5.024m-38.751-122.2c-.009-1.39-.034-2.813,1.637-3.29,1.9-.543,3.424.45,4.772,1.576,9.148,7.636,12.778,17.265,10.265,28.977a37.418,37.418,0,0,1-8.252,16.465c-7.377-14.351-8.326-28.959-8.422-43.728" transform="translate(-525.369 -20.611)" fill="#fff"/>
    <path id="Path_11" data-name="Path 11" d="M525.562,126.464a354.731,354.731,0,0,0-6.843-49.024c-2.423-10.967-4.151-22.167-8.905-32.49-2.029-4.4-5.019-8.232-10.567-7.681-5.3.527-6.386,5.128-7.536,9.237-2.76,9.863-2.394,20-2.475,27.387.2,23.741,2.371,44.62,5,65.443a70.748,70.748,0,0,0,11.209,30.336c3.566,5.407,7.736,5.439,11.511.179a21.4,21.4,0,0,0,2.974-5.635c4.049-12.252,6.648-24.735,5.632-37.752m-10.911,24a10.825,10.825,0,0,1-1.195,2.61,1.12,1.12,0,0,1-1.075.752c-.828,0-3.22-7.538-3.655-11.441-2.412-21.663-7.4-42.9-10.4-64.454-.938-6.736-1.137-13.587.563-20.309.481-1.9,1.124-4.345,3.016-4.676,2.423-.424,3.544,2.072,4.4,3.994,5.129,11.567,6,24.064,7.823,36.347,1.2,8.077,2.244,16.175,3.39,24.259,1.587,11.194-.2,22.1-2.861,32.919" transform="translate(-324.413 -24.678)" fill="#fff"/>
    <path id="Path_12" data-name="Path 12" d="M1011.12,180.029c-3.514-11.108-4.933-22.72-7.77-33.865-4.524-17.779-9.79-35.556-17.151-52.537-4.48-10.335-8.657-20.793-12.2-31.492a16.772,16.772,0,0,0-2.015-4.148c-.861-1.261-2.011-2.7-3.7-2.481-1.785.235-2.254,2.021-2.549,3.527a56.878,56.878,0,0,0-1.219,8.06c-1.647,33.619,1.611,67.3-1.228,100.905a7.508,7.508,0,0,0,1.392,4.958c1,1.467,2.141,3.078,4.1,2.85,2.129-.246,2.565-2.262,2.766-3.973.428-3.664.813-7.351.883-11.035.135-7.123.039-14.251.039-21.988,3.684,2.06,6.814,4.042,10.136,5.626,10.559,5.034,16.685,12.949,17.539,24.858.33,4.607,1.018,9.362,3.523,13.432,1.213,1.971,2.241,5.207,5.544,3.911,3.027-1.188,2.666-4.22,1.911-6.609M975,120.764c-1.573-13.225-2.63-26.511-3.9-39.771-.063-.566,1.586-.86,1.84-.24,6.479,16.356,10.144,33.593,15.781,50.326-8.818.049-12.809-2.681-13.717-10.315" transform="translate(-638.739 -36.792)" fill="#fff"/>
  </g>
</svg>
